<svg xmlns="http://www.w3.org/2000/svg" xmlns:xlink="http://www.w3.org/1999/xlink" width="500" zoomAndPan="magnify" viewBox="0 0 375 374.999991" height="500" preserveAspectRatio="xMidYMid meet" version="1.0"><defs><g/><clipPath id="f238e3c8aa"><path d="M 78 137.421875 L 140.503906 137.421875 L 140.503906 237.921875 L 78 237.921875 Z M 78 137.421875 " clip-rule="nonzero"/></clipPath><clipPath id="8c30bb3a59"><path d="M 63.253906 147 L 111 147 L 111 220 L 63.253906 220 Z M 63.253906 147 " clip-rule="nonzero"/></clipPath></defs><rect x="-37.5" width="450" fill="#ffffff" y="-37.499999" height="449.999989" fill-opacity="1"/><rect x="-37.5" width="450" fill="#ffffff" y="-37.499999" height="449.999989" fill-opacity="1"/><g clip-path="url(#f238e3c8aa)"><path fill="#004aad" d="M 118.4375 151.171875 L 121.402344 137.519531 L 106.0625 169.851562 L 127.558594 177.601562 L 78.484375 237.472656 L 97.125 224.5625 C 98.703125 224.757812 100.308594 224.859375 101.9375 224.859375 C 123.304688 224.859375 140.625 207.539062 140.625 186.171875 C 140.625 170.710938 131.550781 157.367188 118.4375 151.171875 " fill-opacity="1" fill-rule="nonzero"/></g><g clip-path="url(#8c30bb3a59)"><path fill="#d71920" d="M 103.5625 186.097656 L 82.316406 177.351562 L 110.648438 148.476562 C 107.847656 147.832031 104.933594 147.484375 101.9375 147.484375 C 80.570312 147.484375 63.25 164.808594 63.25 186.171875 C 63.25 200.246094 70.765625 212.558594 82.003906 219.328125 L 103.5625 186.097656 " fill-opacity="1" fill-rule="nonzero"/></g><g fill="#004aad" fill-opacity="1"><g transform="translate(151.025385, 187.815369)"><g><path d="M 18.5625 0 L 11.171875 -10.191406 L 17.835938 -19.597656 L 12.90625 -19.597656 L 6.46875 -10.527344 L 6.46875 -19.597656 L 2.238281 -19.597656 L 2.238281 0 L 6.46875 0 L 6.46875 -9.546875 L 13.382812 0 Z M 18.5625 0 "/></g></g></g><g fill="#004aad" fill-opacity="1"><g transform="translate(171.910883, 187.815369)"><g><path d="M 15.230469 0 L 19.851562 0 L 11.925781 -19.597656 L 7.921875 -19.597656 L 0.222656 0 L 4.730469 0 L 6.074219 -3.695312 L 13.859375 -3.695312 Z M 9.96875 -14.417969 L 12.542969 -7.390625 L 7.390625 -7.390625 Z M 9.96875 -14.417969 "/></g></g></g><g fill="#004aad" fill-opacity="1"><g transform="translate(194.53214, 187.815369)"><g><path d="M 13.859375 -19.597656 L 13.859375 -12.039062 L 6.46875 -12.039062 L 6.46875 -19.597656 L 2.238281 -19.597656 L 2.238281 0 L 6.46875 0 L 6.46875 -8.089844 L 13.859375 -8.089844 L 13.859375 0 L 18.085938 0 L 18.085938 -19.597656 Z M 13.859375 -19.597656 "/></g></g></g><g fill="#004aad" fill-opacity="1"><g transform="translate(217.405358, 187.815369)"><g><path d="M 13.019531 0 L 17.75 0 L 13.410156 -7.390625 C 15.59375 -8.457031 16.996094 -10.527344 16.996094 -13.101562 C 16.996094 -16.882812 14.054688 -19.597656 10.136719 -19.597656 L 2.238281 -19.597656 L 2.238281 0 L 6.46875 0 L 6.46875 -6.664062 L 9.183594 -6.664062 Z M 6.46875 -15.679688 L 9.855469 -15.679688 C 11.648438 -15.679688 12.683594 -14.585938 12.683594 -13.128906 C 12.683594 -11.648438 11.648438 -10.582031 9.855469 -10.582031 L 6.46875 -10.582031 Z M 6.46875 -15.679688 "/></g></g></g><g fill="#004aad" fill-opacity="1"><g transform="translate(238.430831, 187.815369)"><g><path d="M 11.535156 0.449219 C 17.5 0.449219 21.949219 -3.949219 21.949219 -9.800781 C 21.949219 -15.621094 17.5 -20.019531 11.535156 -20.019531 C 5.542969 -20.019531 1.0625 -15.59375 1.0625 -9.800781 C 1.0625 -3.976562 5.542969 0.449219 11.535156 0.449219 Z M 11.535156 -3.554688 C 8.035156 -3.554688 5.375 -6.269531 5.375 -9.800781 C 5.375 -13.328125 8.035156 -16.015625 11.535156 -16.015625 C 15.035156 -16.015625 17.636719 -13.355469 17.636719 -9.800781 C 17.636719 -6.242188 15.035156 -3.554688 11.535156 -3.554688 Z M 11.535156 -3.554688 "/></g></g></g><g fill="#004aad" fill-opacity="1"><g transform="translate(263.991689, 187.815369)"><g><path d="M 1.707031 -5.878906 L 10.835938 -5.878906 L 10.835938 -9.828125 L 1.707031 -9.828125 Z M 1.707031 -5.878906 "/></g></g></g><g fill="#004aad" fill-opacity="1"><g transform="translate(279.081971, 187.815369)"><g><path d="M 26.234375 0 L 23.210938 -19.597656 L 18.953125 -19.597656 L 13.636719 -7.558594 L 8.316406 -19.597656 L 4.085938 -19.597656 L 1.007812 0 L 5.320312 0 L 7.25 -12.765625 L 13.101562 -0.0273438 L 14.140625 -0.0273438 L 19.988281 -12.765625 L 21.921875 0 Z M 26.234375 0 "/></g></g></g><g fill="#004aad" fill-opacity="1"><g transform="translate(308.898245, 187.815369)"><g><path d="M 15.230469 0 L 19.851562 0 L 11.925781 -19.597656 L 7.921875 -19.597656 L 0.222656 0 L 4.730469 0 L 6.074219 -3.695312 L 13.859375 -3.695312 Z M 9.96875 -14.417969 L 12.542969 -7.390625 L 7.390625 -7.390625 Z M 9.96875 -14.417969 "/></g></g></g><g fill="#004aad" fill-opacity="1"><g transform="translate(331.519505, 187.815369)"><g><path d="M 15.230469 0 L 19.851562 0 L 11.925781 -19.597656 L 7.921875 -19.597656 L 0.222656 0 L 4.730469 0 L 6.074219 -3.695312 L 13.859375 -3.695312 Z M 9.96875 -14.417969 L 12.542969 -7.390625 L 7.390625 -7.390625 Z M 9.96875 -14.417969 "/></g></g></g><g fill="#d71920" fill-opacity="1"><g transform="translate(152.35539, 200.766169)"><g><path d="M 2.152344 -1.304688 L 2.152344 -2.644531 L 4.414062 -2.644531 L 4.414062 -3.921875 L 2.152344 -3.921875 L 2.152344 -5.214844 L 4.65625 -5.214844 L 4.65625 -6.519531 L 0.746094 -6.519531 L 0.746094 0 L 4.761719 0 L 4.761719 -1.304688 Z M 2.152344 -1.304688 "/></g></g></g><g fill="#d71920" fill-opacity="1"><g transform="translate(158.488328, 200.766169)"><g><path d="M 0.652344 0 L 2.011719 0 L 2.011719 -6.835938 L 0.652344 -6.835938 Z M 0.652344 0 "/></g></g></g><g fill="#d71920" fill-opacity="1"><g transform="translate(162.081065, 200.766169)"><g><path d="M 5.53125 -2.523438 C 5.53125 -3.976562 4.472656 -5.167969 2.925781 -5.167969 C 1.433594 -5.167969 0.316406 -4.023438 0.316406 -2.515625 C 0.316406 -1.007812 1.445312 0.148438 2.925781 0.148438 C 4.097656 0.148438 5.058594 -0.550781 5.421875 -1.648438 L 3.996094 -1.648438 C 3.792969 -1.285156 3.398438 -1.0625 2.925781 -1.0625 C 2.261719 -1.0625 1.816406 -1.445312 1.695312 -2.132812 L 5.503906 -2.132812 C 5.523438 -2.261719 5.53125 -2.394531 5.53125 -2.523438 Z M 2.925781 -4.003906 C 3.539062 -4.003906 3.976562 -3.671875 4.171875 -3.054688 L 1.734375 -3.054688 C 1.890625 -3.652344 2.320312 -4.003906 2.925781 -4.003906 Z M 2.925781 -4.003906 "/></g></g></g><g fill="#d71920" fill-opacity="1"><g transform="translate(168.856027, 200.766169)"><g><path d="M 2.988281 0.148438 C 4.304688 0.148438 5.335938 -0.707031 5.570312 -1.976562 L 4.199219 -1.976562 C 3.96875 -1.433594 3.539062 -1.136719 2.988281 -1.136719 C 2.261719 -1.136719 1.695312 -1.742188 1.695312 -2.515625 C 1.695312 -3.296875 2.253906 -3.894531 2.988281 -3.894531 C 3.53125 -3.894531 3.988281 -3.59375 4.199219 -3.101562 L 5.550781 -3.101562 C 5.308594 -4.339844 4.304688 -5.167969 3 -5.167969 C 1.472656 -5.167969 0.316406 -4.035156 0.316406 -2.523438 C 0.316406 -1.015625 1.472656 0.148438 2.988281 0.148438 Z M 2.988281 0.148438 "/></g></g></g><g fill="#d71920" fill-opacity="1"><g transform="translate(175.603077, 200.766169)"><g><path d="M 3.109375 -1.210938 C 2.609375 -1.210938 2.328125 -1.492188 2.328125 -1.976562 L 2.328125 -3.929688 L 3.699219 -3.929688 L 3.699219 -5.03125 L 2.308594 -5.03125 L 2.308594 -6.335938 L 2.050781 -6.335938 L 0.0664062 -4.230469 L 0.0664062 -3.929688 L 0.96875 -3.929688 L 0.96875 -1.789062 C 0.96875 -0.679688 1.648438 0 2.757812 0 L 3.726562 0 L 3.726562 -1.210938 Z M 3.109375 -1.210938 "/></g></g></g><g fill="#d71920" fill-opacity="1"><g transform="translate(180.535701, 200.766169)"><g><path d="M 3.222656 -5.058594 C 2.570312 -5.058594 2.125 -4.851562 1.761719 -4.40625 L 1.519531 -5.03125 L 0.652344 -5.03125 L 0.652344 0 L 2.011719 0 L 2.011719 -2.609375 C 2.011719 -3.429688 2.308594 -3.773438 3.074219 -3.773438 L 3.671875 -3.773438 L 3.671875 -5.058594 Z M 3.222656 -5.058594 "/></g></g></g><g fill="#d71920" fill-opacity="1"><g transform="translate(185.254308, 200.766169)"><g><path d="M 0.652344 -5.699219 L 2.003906 -5.699219 L 2.003906 -6.957031 L 0.652344 -6.957031 Z M 0.652344 0 L 2.011719 0 L 2.011719 -5.03125 L 0.652344 -5.03125 Z M 0.652344 0 "/></g></g></g><g fill="#d71920" fill-opacity="1"><g transform="translate(188.847046, 200.766169)"><g><path d="M 2.988281 0.148438 C 4.304688 0.148438 5.335938 -0.707031 5.570312 -1.976562 L 4.199219 -1.976562 C 3.96875 -1.433594 3.539062 -1.136719 2.988281 -1.136719 C 2.261719 -1.136719 1.695312 -1.742188 1.695312 -2.515625 C 1.695312 -3.296875 2.253906 -3.894531 2.988281 -3.894531 C 3.53125 -3.894531 3.988281 -3.59375 4.199219 -3.101562 L 5.550781 -3.101562 C 5.308594 -4.339844 4.304688 -5.167969 3 -5.167969 C 1.472656 -5.167969 0.316406 -4.035156 0.316406 -2.523438 C 0.316406 -1.015625 1.472656 0.148438 2.988281 0.148438 Z M 2.988281 0.148438 "/></g></g></g><g fill="#d71920" fill-opacity="1"><g transform="translate(195.594096, 200.766169)"><g><path d="M 4.75 -5.03125 L 4.609375 -4.554688 C 4.171875 -4.9375 3.605469 -5.167969 2.953125 -5.167969 C 1.445312 -5.167969 0.316406 -4.035156 0.316406 -2.515625 C 0.316406 -0.996094 1.445312 0.148438 2.953125 0.148438 C 3.59375 0.148438 4.15625 -0.0742188 4.582031 -0.457031 L 4.703125 0 L 5.765625 0 L 5.765625 -5.03125 Z M 3.066406 -1.136719 C 2.273438 -1.136719 1.695312 -1.734375 1.695312 -2.515625 C 1.695312 -3.308594 2.273438 -3.894531 3.066406 -3.894531 C 3.855469 -3.894531 4.433594 -3.308594 4.433594 -2.515625 C 4.433594 -1.722656 3.855469 -1.136719 3.066406 -1.136719 Z M 3.066406 -1.136719 "/></g></g></g><g fill="#d71920" fill-opacity="1"><g transform="translate(202.945952, 200.766169)"><g><path d="M 0.652344 0 L 2.011719 0 L 2.011719 -6.835938 L 0.652344 -6.835938 Z M 0.652344 0 "/></g></g></g><g fill="#d71920" fill-opacity="1"><g transform="translate(206.538687, 200.766169)"><g/></g></g><g fill="#d71920" fill-opacity="1"><g transform="translate(209.694097, 200.766169)"><g><path d="M 6 0 C 5.636719 -0.410156 5.289062 -0.792969 4.972656 -1.15625 C 5.335938 -1.675781 5.550781 -2.328125 5.578125 -3.082031 L 4.433594 -3.082031 C 4.40625 -2.710938 4.3125 -2.375 4.171875 -2.085938 C 3.78125 -2.542969 3.4375 -2.953125 3.15625 -3.308594 C 3.875 -3.726562 4.574219 -4.199219 4.574219 -5.078125 C 4.574219 -6 3.835938 -6.621094 2.746094 -6.621094 C 1.648438 -6.621094 0.902344 -6.007812 0.902344 -5.066406 C 0.902344 -4.695312 1.015625 -4.320312 1.519531 -3.605469 C 0.902344 -3.203125 0.363281 -2.664062 0.363281 -1.75 C 0.363281 -0.625 1.191406 0.113281 2.414062 0.113281 C 3.09375 0.113281 3.6875 -0.0664062 4.183594 -0.382812 C 4.292969 -0.261719 4.414062 -0.128906 4.527344 0 Z M 2.746094 -5.625 C 3.128906 -5.625 3.371094 -5.402344 3.371094 -5.066406 C 3.371094 -4.695312 3 -4.433594 2.515625 -4.171875 C 2.253906 -4.554688 2.125 -4.851562 2.125 -5.058594 C 2.125 -5.402344 2.367188 -5.625 2.746094 -5.625 Z M 2.542969 -1.050781 C 2.003906 -1.050781 1.640625 -1.351562 1.640625 -1.796875 C 1.640625 -2.179688 1.863281 -2.460938 2.1875 -2.710938 C 2.515625 -2.308594 2.914062 -1.84375 3.410156 -1.277344 C 3.148438 -1.128906 2.859375 -1.050781 2.542969 -1.050781 Z M 2.542969 -1.050781 "/></g></g></g><g fill="#d71920" fill-opacity="1"><g transform="translate(216.636541, 200.766169)"><g/></g></g><g fill="#d71920" fill-opacity="1"><g transform="translate(219.791951, 200.766169)"><g><path d="M 2.152344 -1.304688 L 2.152344 -2.644531 L 4.414062 -2.644531 L 4.414062 -3.921875 L 2.152344 -3.921875 L 2.152344 -5.214844 L 4.65625 -5.214844 L 4.65625 -6.519531 L 0.746094 -6.519531 L 0.746094 0 L 4.761719 0 L 4.761719 -1.304688 Z M 2.152344 -1.304688 "/></g></g></g><g fill="#d71920" fill-opacity="1"><g transform="translate(225.924886, 200.766169)"><g><path d="M 0.652344 0 L 2.011719 0 L 2.011719 -6.835938 L 0.652344 -6.835938 Z M 0.652344 0 "/></g></g></g><g fill="#d71920" fill-opacity="1"><g transform="translate(229.517621, 200.766169)"><g><path d="M 5.53125 -2.523438 C 5.53125 -3.976562 4.472656 -5.167969 2.925781 -5.167969 C 1.433594 -5.167969 0.316406 -4.023438 0.316406 -2.515625 C 0.316406 -1.007812 1.445312 0.148438 2.925781 0.148438 C 4.097656 0.148438 5.058594 -0.550781 5.421875 -1.648438 L 3.996094 -1.648438 C 3.792969 -1.285156 3.398438 -1.0625 2.925781 -1.0625 C 2.261719 -1.0625 1.816406 -1.445312 1.695312 -2.132812 L 5.503906 -2.132812 C 5.523438 -2.261719 5.53125 -2.394531 5.53125 -2.523438 Z M 2.925781 -4.003906 C 3.539062 -4.003906 3.976562 -3.671875 4.171875 -3.054688 L 1.734375 -3.054688 C 1.890625 -3.652344 2.320312 -4.003906 2.925781 -4.003906 Z M 2.925781 -4.003906 "/></g></g></g><g fill="#d71920" fill-opacity="1"><g transform="translate(236.29258, 200.766169)"><g><path d="M 2.988281 0.148438 C 4.304688 0.148438 5.335938 -0.707031 5.570312 -1.976562 L 4.199219 -1.976562 C 3.96875 -1.433594 3.539062 -1.136719 2.988281 -1.136719 C 2.261719 -1.136719 1.695312 -1.742188 1.695312 -2.515625 C 1.695312 -3.296875 2.253906 -3.894531 2.988281 -3.894531 C 3.53125 -3.894531 3.988281 -3.59375 4.199219 -3.101562 L 5.550781 -3.101562 C 5.308594 -4.339844 4.304688 -5.167969 3 -5.167969 C 1.472656 -5.167969 0.316406 -4.035156 0.316406 -2.523438 C 0.316406 -1.015625 1.472656 0.148438 2.988281 0.148438 Z M 2.988281 0.148438 "/></g></g></g><g fill="#d71920" fill-opacity="1"><g transform="translate(243.039627, 200.766169)"><g><path d="M 3.109375 -1.210938 C 2.609375 -1.210938 2.328125 -1.492188 2.328125 -1.976562 L 2.328125 -3.929688 L 3.699219 -3.929688 L 3.699219 -5.03125 L 2.308594 -5.03125 L 2.308594 -6.335938 L 2.050781 -6.335938 L 0.0664062 -4.230469 L 0.0664062 -3.929688 L 0.96875 -3.929688 L 0.96875 -1.789062 C 0.96875 -0.679688 1.648438 0 2.757812 0 L 3.726562 0 L 3.726562 -1.210938 Z M 3.109375 -1.210938 "/></g></g></g><g fill="#d71920" fill-opacity="1"><g transform="translate(247.972247, 200.766169)"><g><path d="M 3.222656 -5.058594 C 2.570312 -5.058594 2.125 -4.851562 1.761719 -4.40625 L 1.519531 -5.03125 L 0.652344 -5.03125 L 0.652344 0 L 2.011719 0 L 2.011719 -2.609375 C 2.011719 -3.429688 2.308594 -3.773438 3.074219 -3.773438 L 3.671875 -3.773438 L 3.671875 -5.058594 Z M 3.222656 -5.058594 "/></g></g></g><g fill="#d71920" fill-opacity="1"><g transform="translate(252.690852, 200.766169)"><g><path d="M 3.035156 0.148438 C 4.59375 0.148438 5.757812 -0.996094 5.757812 -2.515625 C 5.757812 -4.035156 4.59375 -5.167969 3.035156 -5.167969 C 1.480469 -5.167969 0.316406 -4.035156 0.316406 -2.515625 C 0.316406 -0.996094 1.480469 0.148438 3.035156 0.148438 Z M 3.035156 -1.136719 C 2.253906 -1.136719 1.695312 -1.695312 1.695312 -2.515625 C 1.695312 -3.324219 2.253906 -3.894531 3.035156 -3.894531 C 3.820312 -3.894531 4.378906 -3.324219 4.378906 -2.515625 C 4.378906 -1.695312 3.820312 -1.136719 3.035156 -1.136719 Z M 3.035156 -1.136719 "/></g></g></g><g fill="#d71920" fill-opacity="1"><g transform="translate(259.698435, 200.766169)"><g><path d="M 3.511719 -5.140625 C 2.832031 -5.140625 2.226562 -4.851562 1.84375 -4.40625 L 1.582031 -5.03125 L 0.652344 -5.03125 L 0.652344 0 L 2.011719 0 L 2.011719 -2.636719 C 2.011719 -3.445312 2.441406 -3.949219 3.140625 -3.949219 C 3.726562 -3.949219 4.015625 -3.585938 4.015625 -2.824219 L 4.015625 0 L 5.375 0 L 5.375 -3.046875 C 5.375 -4.320312 4.65625 -5.140625 3.511719 -5.140625 Z M 3.511719 -5.140625 "/></g></g></g><g fill="#d71920" fill-opacity="1"><g transform="translate(266.594358, 200.766169)"><g><path d="M 0.652344 -5.699219 L 2.003906 -5.699219 L 2.003906 -6.957031 L 0.652344 -6.957031 Z M 0.652344 0 L 2.011719 0 L 2.011719 -5.03125 L 0.652344 -5.03125 Z M 0.652344 0 "/></g></g></g><g fill="#d71920" fill-opacity="1"><g transform="translate(270.187093, 200.766169)"><g><path d="M 2.988281 0.148438 C 4.304688 0.148438 5.335938 -0.707031 5.570312 -1.976562 L 4.199219 -1.976562 C 3.96875 -1.433594 3.539062 -1.136719 2.988281 -1.136719 C 2.261719 -1.136719 1.695312 -1.742188 1.695312 -2.515625 C 1.695312 -3.296875 2.253906 -3.894531 2.988281 -3.894531 C 3.53125 -3.894531 3.988281 -3.59375 4.199219 -3.101562 L 5.550781 -3.101562 C 5.308594 -4.339844 4.304688 -5.167969 3 -5.167969 C 1.472656 -5.167969 0.316406 -4.035156 0.316406 -2.523438 C 0.316406 -1.015625 1.472656 0.148438 2.988281 0.148438 Z M 2.988281 0.148438 "/></g></g></g><g fill="#d71920" fill-opacity="1"><g transform="translate(276.93414, 200.766169)"><g/></g></g><g fill="#d71920" fill-opacity="1"><g transform="translate(280.089551, 200.766169)"><g><path d="M 3.734375 0.148438 C 5.347656 0.148438 6.613281 -0.929688 6.910156 -2.542969 L 5.488281 -2.542969 C 5.253906 -1.722656 4.59375 -1.203125 3.734375 -1.203125 C 2.625 -1.203125 1.796875 -2.078125 1.796875 -3.25 C 1.796875 -4.425781 2.625 -5.308594 3.734375 -5.308594 C 4.554688 -5.308594 5.207031 -4.824219 5.476562 -4.0625 L 6.882812 -4.0625 C 6.585938 -5.609375 5.320312 -6.660156 3.734375 -6.660156 C 1.816406 -6.660156 0.363281 -5.1875 0.363281 -3.25 C 0.363281 -1.324219 1.816406 0.148438 3.734375 0.148438 Z M 3.734375 0.148438 "/></g></g></g><g fill="#d71920" fill-opacity="1"><g transform="translate(288.195092, 200.766169)"><g><path d="M 3.035156 0.148438 C 4.59375 0.148438 5.757812 -0.996094 5.757812 -2.515625 C 5.757812 -4.035156 4.59375 -5.167969 3.035156 -5.167969 C 1.480469 -5.167969 0.316406 -4.035156 0.316406 -2.515625 C 0.316406 -0.996094 1.480469 0.148438 3.035156 0.148438 Z M 3.035156 -1.136719 C 2.253906 -1.136719 1.695312 -1.695312 1.695312 -2.515625 C 1.695312 -3.324219 2.253906 -3.894531 3.035156 -3.894531 C 3.820312 -3.894531 4.378906 -3.324219 4.378906 -2.515625 C 4.378906 -1.695312 3.820312 -1.136719 3.035156 -1.136719 Z M 3.035156 -1.136719 "/></g></g></g><g fill="#d71920" fill-opacity="1"><g transform="translate(295.202675, 200.766169)"><g><path d="M 3.511719 -5.140625 C 2.832031 -5.140625 2.226562 -4.851562 1.84375 -4.40625 L 1.582031 -5.03125 L 0.652344 -5.03125 L 0.652344 0 L 2.011719 0 L 2.011719 -2.636719 C 2.011719 -3.445312 2.441406 -3.949219 3.140625 -3.949219 C 3.726562 -3.949219 4.015625 -3.585938 4.015625 -2.824219 L 4.015625 0 L 5.375 0 L 5.375 -3.046875 C 5.375 -4.320312 4.65625 -5.140625 3.511719 -5.140625 Z M 3.511719 -5.140625 "/></g></g></g><g fill="#d71920" fill-opacity="1"><g transform="translate(302.098598, 200.766169)"><g><path d="M 3.109375 -1.210938 C 2.609375 -1.210938 2.328125 -1.492188 2.328125 -1.976562 L 2.328125 -3.929688 L 3.699219 -3.929688 L 3.699219 -5.03125 L 2.308594 -5.03125 L 2.308594 -6.335938 L 2.050781 -6.335938 L 0.0664062 -4.230469 L 0.0664062 -3.929688 L 0.96875 -3.929688 L 0.96875 -1.789062 C 0.96875 -0.679688 1.648438 0 2.757812 0 L 3.726562 0 L 3.726562 -1.210938 Z M 3.109375 -1.210938 "/></g></g></g><g fill="#d71920" fill-opacity="1"><g transform="translate(307.031219, 200.766169)"><g><path d="M 3.222656 -5.058594 C 2.570312 -5.058594 2.125 -4.851562 1.761719 -4.40625 L 1.519531 -5.03125 L 0.652344 -5.03125 L 0.652344 0 L 2.011719 0 L 2.011719 -2.609375 C 2.011719 -3.429688 2.308594 -3.773438 3.074219 -3.773438 L 3.671875 -3.773438 L 3.671875 -5.058594 Z M 3.222656 -5.058594 "/></g></g></g><g fill="#d71920" fill-opacity="1"><g transform="translate(311.749823, 200.766169)"><g><path d="M 4.75 -5.03125 L 4.609375 -4.554688 C 4.171875 -4.9375 3.605469 -5.167969 2.953125 -5.167969 C 1.445312 -5.167969 0.316406 -4.035156 0.316406 -2.515625 C 0.316406 -0.996094 1.445312 0.148438 2.953125 0.148438 C 3.59375 0.148438 4.15625 -0.0742188 4.582031 -0.457031 L 4.703125 0 L 5.765625 0 L 5.765625 -5.03125 Z M 3.066406 -1.136719 C 2.273438 -1.136719 1.695312 -1.734375 1.695312 -2.515625 C 1.695312 -3.308594 2.273438 -3.894531 3.066406 -3.894531 C 3.855469 -3.894531 4.433594 -3.308594 4.433594 -2.515625 C 4.433594 -1.722656 3.855469 -1.136719 3.066406 -1.136719 Z M 3.066406 -1.136719 "/></g></g></g><g fill="#d71920" fill-opacity="1"><g transform="translate(319.101679, 200.766169)"><g><path d="M 2.988281 0.148438 C 4.304688 0.148438 5.335938 -0.707031 5.570312 -1.976562 L 4.199219 -1.976562 C 3.96875 -1.433594 3.539062 -1.136719 2.988281 -1.136719 C 2.261719 -1.136719 1.695312 -1.742188 1.695312 -2.515625 C 1.695312 -3.296875 2.253906 -3.894531 2.988281 -3.894531 C 3.53125 -3.894531 3.988281 -3.59375 4.199219 -3.101562 L 5.550781 -3.101562 C 5.308594 -4.339844 4.304688 -5.167969 3 -5.167969 C 1.472656 -5.167969 0.316406 -4.035156 0.316406 -2.523438 C 0.316406 -1.015625 1.472656 0.148438 2.988281 0.148438 Z M 2.988281 0.148438 "/></g></g></g><g fill="#d71920" fill-opacity="1"><g transform="translate(325.848726, 200.766169)"><g><path d="M 3.109375 -1.210938 C 2.609375 -1.210938 2.328125 -1.492188 2.328125 -1.976562 L 2.328125 -3.929688 L 3.699219 -3.929688 L 3.699219 -5.03125 L 2.308594 -5.03125 L 2.308594 -6.335938 L 2.050781 -6.335938 L 0.0664062 -4.230469 L 0.0664062 -3.929688 L 0.96875 -3.929688 L 0.96875 -1.789062 C 0.96875 -0.679688 1.648438 0 2.757812 0 L 3.726562 0 L 3.726562 -1.210938 Z M 3.109375 -1.210938 "/></g></g></g><g fill="#d71920" fill-opacity="1"><g transform="translate(330.781347, 200.766169)"><g><path d="M 0.652344 -5.699219 L 2.003906 -5.699219 L 2.003906 -6.957031 L 0.652344 -6.957031 Z M 0.652344 0 L 2.011719 0 L 2.011719 -5.03125 L 0.652344 -5.03125 Z M 0.652344 0 "/></g></g></g><g fill="#d71920" fill-opacity="1"><g transform="translate(334.374082, 200.766169)"><g><path d="M 3.511719 -5.140625 C 2.832031 -5.140625 2.226562 -4.851562 1.84375 -4.40625 L 1.582031 -5.03125 L 0.652344 -5.03125 L 0.652344 0 L 2.011719 0 L 2.011719 -2.636719 C 2.011719 -3.445312 2.441406 -3.949219 3.140625 -3.949219 C 3.726562 -3.949219 4.015625 -3.585938 4.015625 -2.824219 L 4.015625 0 L 5.375 0 L 5.375 -3.046875 C 5.375 -4.320312 4.65625 -5.140625 3.511719 -5.140625 Z M 3.511719 -5.140625 "/></g></g></g><g fill="#d71920" fill-opacity="1"><g transform="translate(341.270005, 200.766169)"><g><path d="M 4.714844 -5.03125 L 4.488281 -4.527344 C 4.050781 -4.925781 3.472656 -5.167969 2.824219 -5.167969 C 1.414062 -5.167969 0.316406 -4.050781 0.316406 -2.644531 C 0.316406 -1.230469 1.414062 -0.121094 2.824219 -0.121094 C 3.363281 -0.121094 3.855469 -0.289062 4.257812 -0.566406 L 4.257812 -0.382812 C 4.257812 0.355469 3.6875 0.800781 3 0.800781 C 2.496094 0.800781 1.964844 0.566406 1.808594 0.113281 L 0.457031 0.113281 C 0.6875 1.257812 1.65625 1.957031 3.019531 1.957031 C 4.609375 1.957031 5.589844 0.996094 5.589844 -0.578125 L 5.589844 -5.019531 Z M 2.980469 -1.339844 C 2.234375 -1.339844 1.695312 -1.890625 1.695312 -2.636719 C 1.695312 -3.390625 2.234375 -3.941406 2.980469 -3.941406 C 3.726562 -3.941406 4.265625 -3.390625 4.265625 -2.636719 C 4.265625 -1.890625 3.726562 -1.339844 2.980469 -1.339844 Z M 2.980469 -1.339844 "/></g></g></g></svg>