<svg xmlns="http://www.w3.org/2000/svg" xmlns:xlink="http://www.w3.org/1999/xlink" width="500" zoomAndPan="magnify" viewBox="0 0 375 374.999991" height="500" preserveAspectRatio="xMidYMid meet" version="1.0"><defs><g/><clipPath id="d0e54f6e2b"><path d="M 274 137.421875 L 336.898438 137.421875 L 336.898438 237.921875 L 274 237.921875 Z M 274 137.421875 " clip-rule="nonzero"/></clipPath><clipPath id="a6e298abc5"><path d="M 259.648438 147 L 308 147 L 308 220 L 259.648438 220 Z M 259.648438 147 " clip-rule="nonzero"/></clipPath></defs><rect x="-37.5" width="450" fill="#ffffff" y="-37.499999" height="449.999989" fill-opacity="1"/><rect x="-37.5" width="450" fill="#ffffff" y="-37.499999" height="449.999989" fill-opacity="1"/><g clip-path="url(#d0e54f6e2b)"><path fill="#004aad" d="M 314.832031 151.171875 L 317.796875 137.519531 L 302.457031 169.851562 L 323.953125 177.601562 L 274.878906 237.472656 L 293.519531 224.5625 C 295.09375 224.757812 296.699219 224.859375 298.332031 224.859375 C 319.699219 224.859375 337.019531 207.539062 337.019531 186.171875 C 337.019531 170.710938 327.945312 157.367188 314.832031 151.171875 " fill-opacity="1" fill-rule="nonzero"/></g><g clip-path="url(#a6e298abc5)"><path fill="#d71920" d="M 299.957031 186.097656 L 278.707031 177.351562 L 307.042969 148.476562 C 304.242188 147.832031 301.328125 147.484375 298.332031 147.484375 C 276.964844 147.484375 259.644531 164.808594 259.644531 186.171875 C 259.644531 200.246094 267.160156 212.558594 278.394531 219.328125 L 299.957031 186.097656 " fill-opacity="1" fill-rule="nonzero"/></g><g fill="#004aad" fill-opacity="1"><g transform="translate(59.343751, 193.41532)"><g><path d="M 20.671875 -4.484375 L 20.671875 0 L 1.1875 0 L 1.1875 -4.484375 L 3.234375 -4.484375 C 2.867188 -5.316406 2.6875 -6.179688 2.6875 -7.078125 C 2.6875 -8.546875 3.109375 -9.84375 3.953125 -10.96875 C 4.796875 -12.101562 5.957031 -12.984375 7.4375 -13.609375 C 8.914062 -14.242188 10.585938 -14.5625 12.453125 -14.5625 C 13.679688 -14.5625 15.03125 -14.414062 16.5 -14.125 C 17.976562 -13.84375 19.265625 -13.460938 20.359375 -12.984375 L 18.140625 -8.390625 C 17.285156 -8.742188 16.347656 -9.023438 15.328125 -9.234375 C 14.304688 -9.453125 13.347656 -9.5625 12.453125 -9.5625 C 11.171875 -9.5625 10.171875 -9.335938 9.453125 -8.890625 C 8.742188 -8.441406 8.390625 -7.835938 8.390625 -7.078125 C 8.390625 -6.328125 8.703125 -5.707031 9.328125 -5.21875 C 9.953125 -4.726562 10.691406 -4.484375 11.546875 -4.484375 Z M 20.671875 -4.484375 "/></g></g></g><g fill="#004aad" fill-opacity="1"><g transform="translate(81.610375, 193.41532)"><g><path d="M 11.546875 -4.984375 C 11.742188 -4.984375 11.898438 -4.757812 12.015625 -4.3125 C 12.128906 -3.863281 12.1875 -3.269531 12.1875 -2.53125 C 12.1875 -1.757812 12.128906 -1.144531 12.015625 -0.6875 C 11.898438 -0.226562 11.742188 0 11.546875 0 L 2.34375 0 L 2.34375 -24.09375 L 8.03125 -24.09375 L 8.03125 -4.984375 Z M 11.546875 -4.984375 "/></g></g></g><g fill="#004aad" fill-opacity="1"><g transform="translate(93.575533, 193.41532)"><g><path d="M 6.96875 -4.984375 C 7.1875 -4.984375 7.347656 -4.765625 7.453125 -4.328125 C 7.554688 -3.898438 7.609375 -3.300781 7.609375 -2.53125 C 7.609375 -1.738281 7.554688 -1.117188 7.453125 -0.671875 C 7.347656 -0.222656 7.1875 0 6.96875 0 L 0 0 C -0.207031 0 -0.363281 -0.222656 -0.46875 -0.671875 C -0.582031 -1.117188 -0.640625 -1.738281 -0.640625 -2.53125 C -0.640625 -3.300781 -0.582031 -3.898438 -0.46875 -4.328125 C -0.363281 -4.765625 -0.207031 -4.984375 0 -4.984375 Z M 6.96875 -4.984375 "/></g></g></g><g fill="#004aad" fill-opacity="1"><g transform="translate(100.965812, 193.41532)"><g><path d="M 11.078125 -16.484375 C 13.179688 -16.484375 15.097656 -15.835938 16.828125 -14.546875 C 18.554688 -13.253906 19.910156 -11.507812 20.890625 -9.3125 C 21.878906 -7.113281 22.335938 -4.710938 22.265625 -2.109375 C 20.691406 -1.453125 18.984375 -0.9375 17.140625 -0.5625 C 15.296875 -0.1875 13.65625 0 12.21875 0 C 9.976562 0 7.757812 -0.476562 5.5625 -1.4375 C 4.882812 -0.96875 4.125 -0.609375 3.28125 -0.359375 C 2.4375 -0.117188 1.554688 0 0.640625 0 L 0 0 C -0.207031 0 -0.363281 -0.222656 -0.46875 -0.671875 C -0.582031 -1.117188 -0.640625 -1.738281 -0.640625 -2.53125 C -0.640625 -3.300781 -0.582031 -3.898438 -0.46875 -4.328125 C -0.363281 -4.765625 -0.207031 -4.984375 0 -4.984375 L 0.640625 -4.984375 C 1.085938 -4.984375 1.5 -5.070312 1.875 -5.25 C 2.25 -5.4375 2.5 -5.851562 2.625 -6.5 C 2.664062 -6.664062 2.835938 -7.617188 3.140625 -9.359375 C 3.453125 -11.097656 4.300781 -12.71875 5.6875 -14.21875 C 7.082031 -15.726562 8.878906 -16.484375 11.078125 -16.484375 Z M 8.28125 -5.828125 C 9.65625 -5.265625 10.96875 -4.984375 12.21875 -4.984375 C 13.414062 -4.984375 14.757812 -5.15625 16.25 -5.5 C 16 -6.632812 15.601562 -7.65625 15.0625 -8.5625 C 14.53125 -9.46875 13.925781 -10.175781 13.25 -10.6875 C 12.582031 -11.195312 11.910156 -11.453125 11.234375 -11.453125 C 10.703125 -11.453125 10.269531 -11.269531 9.9375 -10.90625 C 9.601562 -10.550781 9.34375 -10.082031 9.15625 -9.5 C 8.976562 -8.925781 8.785156 -8.117188 8.578125 -7.078125 Z M 8.28125 -5.828125 "/></g></g></g><g fill="#004aad" fill-opacity="1"><g transform="translate(125.279934, 193.41532)"><g/></g></g><g fill="#004aad" fill-opacity="1"><g transform="translate(134.333806, 193.41532)"><g><path d="M 10.9375 -17.0625 C 12.300781 -17.0625 13.738281 -16.878906 15.25 -16.515625 C 16.769531 -16.148438 18.109375 -15.671875 19.265625 -15.078125 L 19.265625 -1.03125 C 19.265625 0.71875 18.898438 2.226562 18.171875 3.5 C 17.453125 4.769531 16.429688 5.742188 15.109375 6.421875 C 13.785156 7.109375 12.226562 7.453125 10.4375 7.453125 L 4.546875 7.453125 L 4.546875 2.4375 L 10.4375 2.4375 C 11.414062 2.4375 12.144531 2.25 12.625 1.875 C 13.101562 1.5 13.394531 0.875 13.5 0 L 10.4375 0 C 8.644531 0 7.050781 -0.375 5.65625 -1.125 C 4.269531 -1.882812 3.191406 -2.910156 2.421875 -4.203125 C 1.660156 -5.492188 1.28125 -6.910156 1.28125 -8.453125 C 1.28125 -10.023438 1.671875 -11.46875 2.453125 -12.78125 C 3.242188 -14.09375 4.367188 -15.132812 5.828125 -15.90625 C 7.296875 -16.675781 9 -17.0625 10.9375 -17.0625 Z M 6.96875 -8.453125 C 6.96875 -7.335938 7.265625 -6.476562 7.859375 -5.875 C 8.460938 -5.28125 9.320312 -4.984375 10.4375 -4.984375 L 13.5625 -4.984375 L 13.5625 -11.75 C 12.601562 -11.957031 11.738281 -12.0625 10.96875 -12.0625 C 9.644531 -12.0625 8.644531 -11.742188 7.96875 -11.109375 C 7.300781 -10.484375 6.96875 -9.597656 6.96875 -8.453125 Z M 6.96875 -8.453125 "/></g></g></g><g fill="#004aad" fill-opacity="1"><g transform="translate(155.736643, 193.41532)"><g><path d="M 11.578125 -4.984375 C 11.796875 -4.984375 11.957031 -4.765625 12.0625 -4.328125 C 12.164062 -3.898438 12.21875 -3.300781 12.21875 -2.53125 C 12.21875 -1.738281 12.164062 -1.117188 12.0625 -0.671875 C 11.957031 -0.222656 11.796875 0 11.578125 0 L 8.28125 0 C 8.070312 2.21875 7.242188 3.984375 5.796875 5.296875 C 4.359375 6.609375 2.46875 7.316406 0.125 7.421875 L -0.640625 2.4375 C 0.554688 2.457031 1.398438 2.203125 1.890625 1.671875 C 2.378906 1.148438 2.625 0.25 2.625 -1.03125 L 2.625 -16.484375 L 8.3125 -16.484375 L 8.3125 -4.984375 Z M 11.578125 -4.984375 "/></g></g></g><g fill="#004aad" fill-opacity="1"><g transform="translate(167.733804, 193.41532)"><g><path d="M 23.8125 -4.984375 C 24 -4.984375 24.148438 -4.757812 24.265625 -4.3125 C 24.390625 -3.863281 24.453125 -3.269531 24.453125 -2.53125 C 24.453125 -1.757812 24.390625 -1.144531 24.265625 -0.6875 C 24.148438 -0.226562 24 0 23.8125 0 L 23.296875 0 C 22.335938 0 21.632812 0.28125 21.1875 0.84375 C 20.738281 1.414062 20.453125 2.179688 20.328125 3.140625 C 20.210938 4.097656 20.15625 5.460938 20.15625 7.234375 L 12.3125 11.515625 C 9.457031 10.773438 7.257812 9.441406 5.71875 7.515625 C 4.1875 5.597656 3.238281 3.09375 2.875 0 L 0 0 C -0.207031 0 -0.363281 -0.222656 -0.46875 -0.671875 C -0.582031 -1.117188 -0.640625 -1.738281 -0.640625 -2.53125 C -0.640625 -3.300781 -0.582031 -3.898438 -0.46875 -4.328125 C -0.363281 -4.765625 -0.207031 -4.984375 0 -4.984375 L 2.71875 -4.984375 C 2.863281 -7.523438 3.296875 -9.800781 4.015625 -11.8125 C 4.734375 -13.832031 5.703125 -15.410156 6.921875 -16.546875 C 8.148438 -17.691406 9.566406 -18.265625 11.171875 -18.265625 C 12.703125 -18.265625 14.109375 -17.742188 15.390625 -16.703125 C 16.671875 -15.660156 17.679688 -14.179688 18.421875 -12.265625 C 19.171875 -10.359375 19.546875 -8.171875 19.546875 -5.703125 C 19.546875 -5.097656 19.535156 -4.660156 19.515625 -4.390625 C 20.546875 -4.785156 21.804688 -4.984375 23.296875 -4.984375 Z M 11.203125 -13.28125 C 10.859375 -13.28125 10.488281 -12.898438 10.09375 -12.140625 C 9.695312 -11.390625 9.347656 -10.378906 9.046875 -9.109375 C 8.753906 -7.835938 8.554688 -6.460938 8.453125 -4.984375 L 13.859375 -4.984375 L 13.859375 -5.65625 C 13.859375 -6.976562 13.710938 -8.226562 13.421875 -9.40625 C 13.128906 -10.582031 12.773438 -11.519531 12.359375 -12.21875 C 11.953125 -12.925781 11.566406 -13.28125 11.203125 -13.28125 Z M 14.59375 4.453125 C 14.71875 2.660156 15.003906 1.175781 15.453125 0 L 8.578125 0 C 8.785156 1.445312 9.15625 2.648438 9.6875 3.609375 C 10.226562 4.578125 10.945312 5.335938 11.84375 5.890625 Z M 14.59375 4.453125 "/></g></g></g><g fill="#004aad" fill-opacity="1"><g transform="translate(191.95195, 193.41532)"><g><path d="M 6.96875 -4.984375 C 7.1875 -4.984375 7.347656 -4.765625 7.453125 -4.328125 C 7.554688 -3.898438 7.609375 -3.300781 7.609375 -2.53125 C 7.609375 -1.738281 7.554688 -1.117188 7.453125 -0.671875 C 7.347656 -0.222656 7.1875 0 6.96875 0 L 0 0 C -0.207031 0 -0.363281 -0.222656 -0.46875 -0.671875 C -0.582031 -1.117188 -0.640625 -1.738281 -0.640625 -2.53125 C -0.640625 -3.300781 -0.582031 -3.898438 -0.46875 -4.328125 C -0.363281 -4.765625 -0.207031 -4.984375 0 -4.984375 Z M 6.96875 -4.984375 "/></g></g></g><g fill="#004aad" fill-opacity="1"><g transform="translate(199.342223, 193.41532)"><g><path d="M 6.96875 -4.984375 C 7.1875 -4.984375 7.347656 -4.765625 7.453125 -4.328125 C 7.554688 -3.898438 7.609375 -3.300781 7.609375 -2.53125 C 7.609375 -1.738281 7.554688 -1.117188 7.453125 -0.671875 C 7.347656 -0.222656 7.1875 0 6.96875 0 L 0 0 C -0.207031 0 -0.363281 -0.222656 -0.46875 -0.671875 C -0.582031 -1.117188 -0.640625 -1.738281 -0.640625 -2.53125 C -0.640625 -3.300781 -0.582031 -3.898438 -0.46875 -4.328125 C -0.363281 -4.765625 -0.207031 -4.984375 0 -4.984375 Z M 6.96875 -4.984375 "/></g></g></g><g fill="#004aad" fill-opacity="1"><g transform="translate(206.732497, 193.41532)"><g><path d="M 6.96875 -4.984375 C 7.1875 -4.984375 7.347656 -4.765625 7.453125 -4.328125 C 7.554688 -3.898438 7.609375 -3.300781 7.609375 -2.53125 C 7.609375 -1.738281 7.554688 -1.117188 7.453125 -0.671875 C 7.347656 -0.222656 7.1875 0 6.96875 0 L 0 0 C -0.207031 0 -0.363281 -0.222656 -0.46875 -0.671875 C -0.582031 -1.117188 -0.640625 -1.738281 -0.640625 -2.53125 C -0.640625 -3.300781 -0.582031 -3.898438 -0.46875 -4.328125 C -0.363281 -4.765625 -0.207031 -4.984375 0 -4.984375 Z M 6.96875 -4.984375 "/></g></g></g><g fill="#004aad" fill-opacity="1"><g transform="translate(214.12277, 193.41532)"><g><path d="M 6.96875 -4.984375 C 7.1875 -4.984375 7.347656 -4.765625 7.453125 -4.328125 C 7.554688 -3.898438 7.609375 -3.300781 7.609375 -2.53125 C 7.609375 -1.738281 7.554688 -1.117188 7.453125 -0.671875 C 7.347656 -0.222656 7.1875 0 6.96875 0 L 0 0 C -0.207031 0 -0.363281 -0.222656 -0.46875 -0.671875 C -0.582031 -1.117188 -0.640625 -1.738281 -0.640625 -2.53125 C -0.640625 -3.300781 -0.582031 -3.898438 -0.46875 -4.328125 C -0.363281 -4.765625 -0.207031 -4.984375 0 -4.984375 Z M 6.96875 -4.984375 "/></g></g></g><g fill="#004aad" fill-opacity="1"><g transform="translate(221.513044, 193.41532)"><g><path d="M 6.96875 -4.984375 C 7.1875 -4.984375 7.347656 -4.765625 7.453125 -4.328125 C 7.554688 -3.898438 7.609375 -3.300781 7.609375 -2.53125 C 7.609375 -1.738281 7.554688 -1.117188 7.453125 -0.671875 C 7.347656 -0.222656 7.1875 0 6.96875 0 L 0 0 C -0.207031 0 -0.363281 -0.222656 -0.46875 -0.671875 C -0.582031 -1.117188 -0.640625 -1.738281 -0.640625 -2.53125 C -0.640625 -3.300781 -0.582031 -3.898438 -0.46875 -4.328125 C -0.363281 -4.765625 -0.207031 -4.984375 0 -4.984375 Z M 6.96875 -4.984375 "/></g></g></g><g fill="#004aad" fill-opacity="1"><g transform="translate(228.903317, 193.41532)"><g><path d="M 9.59375 -15.078125 C 11.582031 -14.410156 13.125 -13.21875 14.21875 -11.5 C 15.320312 -9.78125 15.875 -7.609375 15.875 -4.984375 L 15.875 0 L 0 0 C -0.207031 0 -0.363281 -0.222656 -0.46875 -0.671875 C -0.582031 -1.117188 -0.640625 -1.738281 -0.640625 -2.53125 C -0.640625 -3.300781 -0.582031 -3.898438 -0.46875 -4.328125 C -0.363281 -4.765625 -0.207031 -4.984375 0 -4.984375 L 10.140625 -4.984375 L 10.140625 -5.28125 C 10.140625 -7.050781 9.722656 -8.398438 8.890625 -9.328125 C 8.054688 -10.253906 6.84375 -10.71875 5.25 -10.71875 L 1.765625 -14.265625 L 10.5625 -23.109375 L 14.046875 -19.546875 Z M 9.59375 -15.078125 "/></g></g></g><g fill="#d71920" fill-opacity="1"><g transform="translate(63.579151, 216.261137)"><g><path d="M 7.53125 -1.640625 C 7.601562 -1.640625 7.65625 -1.566406 7.6875 -1.421875 C 7.71875 -1.273438 7.734375 -1.078125 7.734375 -0.828125 C 7.734375 -0.566406 7.71875 -0.363281 7.6875 -0.21875 C 7.65625 -0.0703125 7.601562 0 7.53125 0 L 6.96875 0 C 6.144531 0 5.53125 -0.242188 5.125 -0.734375 C 4.445312 -0.441406 3.828125 -0.296875 3.265625 -0.296875 C 2.722656 -0.296875 2.222656 -0.421875 1.765625 -0.671875 C 1.304688 -0.921875 0.941406 -1.265625 0.671875 -1.703125 C 0.410156 -2.140625 0.28125 -2.613281 0.28125 -3.125 C 0.28125 -3.644531 0.410156 -4.117188 0.671875 -4.546875 C 0.941406 -4.984375 1.304688 -5.320312 1.765625 -5.5625 C 2.222656 -5.8125 2.726562 -5.9375 3.28125 -5.9375 L 4.59375 -5.9375 L 4.59375 -6.21875 L 6.453125 -6.21875 L 6.453125 -2.515625 C 6.453125 -2.203125 6.507812 -1.976562 6.625 -1.84375 C 6.75 -1.707031 6.953125 -1.640625 7.234375 -1.640625 Z M 3.421875 -1.9375 C 3.773438 -1.9375 4.164062 -2.066406 4.59375 -2.328125 L 4.59375 -4.296875 L 3.40625 -4.296875 C 3.050781 -4.296875 2.753906 -4.179688 2.515625 -3.953125 C 2.273438 -3.722656 2.15625 -3.445312 2.15625 -3.125 C 2.15625 -2.789062 2.273438 -2.507812 2.515625 -2.28125 C 2.753906 -2.050781 3.054688 -1.9375 3.421875 -1.9375 Z M 2.40625 -6.734375 C 2.175781 -6.734375 1.988281 -6.800781 1.84375 -6.9375 C 1.707031 -7.082031 1.640625 -7.269531 1.640625 -7.5 C 1.640625 -7.726562 1.707031 -7.914062 1.84375 -8.0625 C 1.988281 -8.207031 2.175781 -8.28125 2.40625 -8.28125 C 2.625 -8.28125 2.804688 -8.207031 2.953125 -8.0625 C 3.097656 -7.914062 3.171875 -7.726562 3.171875 -7.5 C 3.171875 -7.269531 3.097656 -7.082031 2.953125 -6.9375 C 2.804688 -6.800781 2.625 -6.734375 2.40625 -6.734375 Z M 4.1875 -6.734375 C 3.96875 -6.734375 3.785156 -6.800781 3.640625 -6.9375 C 3.492188 -7.082031 3.421875 -7.269531 3.421875 -7.5 C 3.421875 -7.726562 3.492188 -7.914062 3.640625 -8.0625 C 3.785156 -8.207031 3.96875 -8.28125 4.1875 -8.28125 C 4.414062 -8.28125 4.601562 -8.207031 4.75 -8.0625 C 4.894531 -7.914062 4.96875 -7.726562 4.96875 -7.5 C 4.96875 -7.269531 4.894531 -7.082031 4.75 -6.9375 C 4.601562 -6.800781 4.414062 -6.734375 4.1875 -6.734375 Z M 4.1875 -6.734375 "/></g></g></g><g fill="#d71920" fill-opacity="1"><g transform="translate(71.580123, 216.261137)"><g><path d="M 4.578125 -1.640625 C 4.648438 -1.640625 4.703125 -1.566406 4.734375 -1.421875 C 4.765625 -1.273438 4.78125 -1.078125 4.78125 -0.828125 C 4.78125 -0.566406 4.765625 -0.363281 4.734375 -0.21875 C 4.703125 -0.0703125 4.648438 0 4.578125 0 L 4.03125 0 C 3.382812 0 2.863281 -0.175781 2.46875 -0.53125 C 2.070312 -0.175781 1.519531 0 0.8125 0 L 0 0 C -0.0703125 0 -0.125 -0.0703125 -0.15625 -0.21875 C -0.1875 -0.363281 -0.203125 -0.566406 -0.203125 -0.828125 C -0.203125 -1.078125 -0.1875 -1.273438 -0.15625 -1.421875 C -0.125 -1.566406 -0.0703125 -1.640625 0 -1.640625 L 0.546875 -1.640625 C 0.828125 -1.640625 1.023438 -1.707031 1.140625 -1.84375 C 1.265625 -1.976562 1.328125 -2.203125 1.328125 -2.515625 L 1.328125 -5.40625 L 3.1875 -5.40625 L 3.1875 -2.5 C 3.1875 -2.289062 3.171875 -2.070312 3.140625 -1.84375 C 3.273438 -1.707031 3.472656 -1.640625 3.734375 -1.640625 Z M 1.375 2.375 C 1.144531 2.375 0.957031 2.300781 0.8125 2.15625 C 0.675781 2.019531 0.609375 1.835938 0.609375 1.609375 C 0.609375 1.378906 0.675781 1.191406 0.8125 1.046875 C 0.957031 0.898438 1.144531 0.828125 1.375 0.828125 C 1.59375 0.828125 1.773438 0.898438 1.921875 1.046875 C 2.066406 1.191406 2.140625 1.378906 2.140625 1.609375 C 2.140625 1.835938 2.066406 2.019531 1.921875 2.15625 C 1.773438 2.300781 1.59375 2.375 1.375 2.375 Z M 3.15625 2.375 C 2.9375 2.375 2.753906 2.300781 2.609375 2.15625 C 2.460938 2.019531 2.390625 1.835938 2.390625 1.609375 C 2.390625 1.378906 2.460938 1.191406 2.609375 1.046875 C 2.753906 0.898438 2.9375 0.828125 3.15625 0.828125 C 3.382812 0.828125 3.570312 0.898438 3.71875 1.046875 C 3.863281 1.191406 3.9375 1.378906 3.9375 1.609375 C 3.9375 1.835938 3.863281 2.019531 3.71875 2.15625 C 3.570312 2.300781 3.382812 2.375 3.15625 2.375 Z M 3.15625 2.375 "/></g></g></g><g fill="#d71920" fill-opacity="1"><g transform="translate(76.630603, 216.261137)"><g><path d="M 1.125 -5.40625 L 2.984375 -5.40625 L 2.984375 0 L 0 0 C -0.0703125 0 -0.125 -0.0703125 -0.15625 -0.21875 C -0.1875 -0.363281 -0.203125 -0.566406 -0.203125 -0.828125 C -0.203125 -1.078125 -0.1875 -1.273438 -0.15625 -1.421875 C -0.125 -1.566406 -0.0703125 -1.640625 0 -1.640625 L 1.125 -1.640625 Z M 2.0625 -6.140625 C 1.789062 -6.140625 1.566406 -6.226562 1.390625 -6.40625 C 1.222656 -6.582031 1.140625 -6.804688 1.140625 -7.078125 C 1.140625 -7.347656 1.222656 -7.570312 1.390625 -7.75 C 1.566406 -7.925781 1.789062 -8.015625 2.0625 -8.015625 C 2.332031 -8.015625 2.550781 -7.925781 2.71875 -7.75 C 2.894531 -7.570312 2.984375 -7.347656 2.984375 -7.078125 C 2.984375 -6.804688 2.894531 -6.582031 2.71875 -6.40625 C 2.550781 -6.226562 2.332031 -6.140625 2.0625 -6.140625 Z M 2.0625 -6.140625 "/></g></g></g><g fill="#d71920" fill-opacity="1"><g transform="translate(80.767592, 216.261137)"><g><path d="M 3.59375 -5.59375 C 4.039062 -5.59375 4.507812 -5.53125 5 -5.40625 C 5.5 -5.289062 5.941406 -5.140625 6.328125 -4.953125 L 6.328125 -0.34375 C 6.328125 0.238281 6.207031 0.738281 5.96875 1.15625 C 5.726562 1.570312 5.390625 1.890625 4.953125 2.109375 C 4.523438 2.335938 4.015625 2.453125 3.421875 2.453125 L 1.484375 2.453125 L 1.484375 0.796875 L 3.421875 0.796875 C 3.742188 0.796875 3.984375 0.734375 4.140625 0.609375 C 4.296875 0.492188 4.394531 0.289062 4.4375 0 L 3.421875 0 C 2.835938 0 2.316406 -0.125 1.859375 -0.375 C 1.398438 -0.625 1.046875 -0.957031 0.796875 -1.375 C 0.546875 -1.800781 0.421875 -2.265625 0.421875 -2.765625 C 0.421875 -3.285156 0.550781 -3.757812 0.8125 -4.1875 C 1.070312 -4.625 1.441406 -4.96875 1.921875 -5.21875 C 2.398438 -5.46875 2.957031 -5.59375 3.59375 -5.59375 Z M 2.28125 -2.765625 C 2.28125 -2.398438 2.378906 -2.117188 2.578125 -1.921875 C 2.773438 -1.734375 3.054688 -1.640625 3.421875 -1.640625 L 4.453125 -1.640625 L 4.453125 -3.859375 C 4.140625 -3.921875 3.851562 -3.953125 3.59375 -3.953125 C 3.164062 -3.953125 2.835938 -3.847656 2.609375 -3.640625 C 2.390625 -3.441406 2.28125 -3.148438 2.28125 -2.765625 Z M 2.28125 -2.765625 "/></g></g></g><g fill="#d71920" fill-opacity="1"><g transform="translate(88.128062, 216.261137)"><g><path d="M 3.796875 -1.640625 C 3.867188 -1.640625 3.921875 -1.566406 3.953125 -1.421875 C 3.992188 -1.273438 4.015625 -1.078125 4.015625 -0.828125 C 4.015625 -0.566406 3.992188 -0.363281 3.953125 -0.21875 C 3.921875 -0.0703125 3.867188 0 3.796875 0 L 2.71875 0 C 2.644531 0.726562 2.375 1.304688 1.90625 1.734375 C 1.4375 2.171875 0.816406 2.40625 0.046875 2.4375 L -0.203125 0.796875 C 0.179688 0.804688 0.453125 0.722656 0.609375 0.546875 C 0.773438 0.378906 0.859375 0.0820312 0.859375 -0.34375 L 0.859375 -5.40625 L 2.734375 -5.40625 L 2.734375 -1.640625 Z M 3.796875 -1.640625 "/></g></g></g><g fill="#d71920" fill-opacity="1"><g transform="translate(92.401546, 216.261137)"><g><path d="M 4.578125 -1.640625 C 4.648438 -1.640625 4.703125 -1.566406 4.734375 -1.421875 C 4.765625 -1.273438 4.78125 -1.078125 4.78125 -0.828125 C 4.78125 -0.566406 4.765625 -0.363281 4.734375 -0.21875 C 4.703125 -0.0703125 4.648438 0 4.578125 0 L 4.03125 0 C 3.382812 0 2.863281 -0.175781 2.46875 -0.53125 C 2.070312 -0.175781 1.519531 0 0.8125 0 L 0 0 C -0.0703125 0 -0.125 -0.0703125 -0.15625 -0.21875 C -0.1875 -0.363281 -0.203125 -0.566406 -0.203125 -0.828125 C -0.203125 -1.078125 -0.1875 -1.273438 -0.15625 -1.421875 C -0.125 -1.566406 -0.0703125 -1.640625 0 -1.640625 L 0.546875 -1.640625 C 0.828125 -1.640625 1.023438 -1.707031 1.140625 -1.84375 C 1.265625 -1.976562 1.328125 -2.203125 1.328125 -2.515625 L 1.328125 -5.40625 L 3.1875 -5.40625 L 3.1875 -2.5 C 3.1875 -2.289062 3.171875 -2.070312 3.140625 -1.84375 C 3.273438 -1.707031 3.472656 -1.640625 3.734375 -1.640625 Z M 1.375 -6.140625 C 1.144531 -6.140625 0.957031 -6.207031 0.8125 -6.34375 C 0.675781 -6.488281 0.609375 -6.675781 0.609375 -6.90625 C 0.609375 -7.132812 0.675781 -7.320312 0.8125 -7.46875 C 0.957031 -7.613281 1.144531 -7.6875 1.375 -7.6875 C 1.59375 -7.6875 1.773438 -7.613281 1.921875 -7.46875 C 2.066406 -7.320312 2.140625 -7.132812 2.140625 -6.90625 C 2.140625 -6.675781 2.066406 -6.488281 1.921875 -6.34375 C 1.773438 -6.207031 1.59375 -6.140625 1.375 -6.140625 Z M 3.15625 -6.140625 C 2.9375 -6.140625 2.753906 -6.207031 2.609375 -6.34375 C 2.460938 -6.488281 2.390625 -6.675781 2.390625 -6.90625 C 2.390625 -7.132812 2.460938 -7.320312 2.609375 -7.46875 C 2.753906 -7.613281 2.9375 -7.6875 3.15625 -7.6875 C 3.382812 -7.6875 3.570312 -7.613281 3.71875 -7.46875 C 3.863281 -7.320312 3.9375 -7.132812 3.9375 -6.90625 C 3.9375 -6.675781 3.863281 -6.488281 3.71875 -6.34375 C 3.570312 -6.207031 3.382812 -6.140625 3.15625 -6.140625 Z M 3.15625 -6.140625 "/></g></g></g><g fill="#d71920" fill-opacity="1"><g transform="translate(97.452027, 216.261137)"><g><path d="M 6.671875 -1.640625 C 6.734375 -1.640625 6.78125 -1.566406 6.8125 -1.421875 C 6.851562 -1.273438 6.875 -1.078125 6.875 -0.828125 C 6.875 -0.578125 6.851562 -0.375 6.8125 -0.21875 C 6.78125 -0.0703125 6.734375 0 6.671875 0 L 0 0 C -0.0703125 0 -0.125 -0.0703125 -0.15625 -0.21875 C -0.1875 -0.363281 -0.203125 -0.566406 -0.203125 -0.828125 C -0.203125 -1.078125 -0.1875 -1.273438 -0.15625 -1.421875 C -0.125 -1.566406 -0.0703125 -1.640625 0 -1.640625 L 3.328125 -1.640625 L 3.328125 -1.734375 C 3.328125 -2.316406 3.191406 -2.757812 2.921875 -3.0625 C 2.648438 -3.363281 2.25 -3.515625 1.71875 -3.515625 L 0.578125 -4.6875 L 3.46875 -7.578125 L 4.609375 -6.421875 L 3.15625 -4.953125 C 3.800781 -4.734375 4.300781 -4.335938 4.65625 -3.765625 C 5.019531 -3.203125 5.203125 -2.492188 5.203125 -1.640625 Z M 6.671875 -1.640625 "/></g></g></g><g fill="#d71920" fill-opacity="1"><g transform="translate(104.592004, 216.261137)"><g><path d="M 0.84375 -7.90625 L 2.703125 -7.90625 L 2.703125 0 L 0 0 C -0.0703125 0 -0.125 -0.0703125 -0.15625 -0.21875 C -0.1875 -0.363281 -0.203125 -0.566406 -0.203125 -0.828125 C -0.203125 -1.078125 -0.1875 -1.273438 -0.15625 -1.421875 C -0.125 -1.566406 -0.0703125 -1.640625 0 -1.640625 L 0.84375 -1.640625 Z M 0.84375 -7.90625 "/></g></g></g><g fill="#d71920" fill-opacity="1"><g transform="translate(108.560995, 216.261137)"><g><path d="M 5.359375 -1.640625 L 5.359375 -7.90625 L 7.21875 -7.90625 L 7.21875 0 L 0.421875 0 L 0.421875 -1.640625 L 1.71875 -1.640625 L 1.71875 -6.421875 L 3.578125 -6.421875 L 3.578125 -1.640625 Z M 3.96875 2.265625 L 3.96875 3.21875 L 1.265625 3.21875 L 1.265625 2.265625 L 1.46875 2.265625 C 1.425781 2.128906 1.40625 2 1.40625 1.875 C 1.40625 1.476562 1.546875 1.15625 1.828125 0.90625 C 2.109375 0.65625 2.46875 0.53125 2.90625 0.53125 C 3.238281 0.53125 3.5625 0.597656 3.875 0.734375 L 3.453125 1.65625 C 3.390625 1.613281 3.304688 1.582031 3.203125 1.5625 C 3.109375 1.539062 3.015625 1.53125 2.921875 1.53125 C 2.742188 1.53125 2.601562 1.566406 2.5 1.640625 C 2.394531 1.710938 2.34375 1.800781 2.34375 1.90625 C 2.34375 1.988281 2.367188 2.0625 2.421875 2.125 C 2.472656 2.195312 2.539062 2.242188 2.625 2.265625 Z M 3.96875 2.265625 "/></g></g></g><g fill="#d71920" fill-opacity="1"><g transform="translate(116.939966, 216.261137)"><g><path d="M 2.640625 0 L 0.765625 0 L 0.765625 -7.90625 L 2.640625 -7.90625 Z M 2.640625 0 "/></g></g></g><g fill="#d71920" fill-opacity="1"><g transform="translate(120.814449, 216.261137)"><g/></g></g><g fill="#d71920" fill-opacity="1"><g transform="translate(124.121935, 216.261137)"><g><path d="M 3.59375 -5.59375 C 4.039062 -5.59375 4.507812 -5.53125 5 -5.40625 C 5.5 -5.289062 5.941406 -5.140625 6.328125 -4.953125 L 6.328125 -0.34375 C 6.328125 0.238281 6.207031 0.738281 5.96875 1.15625 C 5.726562 1.570312 5.390625 1.890625 4.953125 2.109375 C 4.523438 2.335938 4.015625 2.453125 3.421875 2.453125 L 1.484375 2.453125 L 1.484375 0.796875 L 3.421875 0.796875 C 3.742188 0.796875 3.984375 0.734375 4.140625 0.609375 C 4.296875 0.492188 4.394531 0.289062 4.4375 0 L 3.421875 0 C 2.835938 0 2.316406 -0.125 1.859375 -0.375 C 1.398438 -0.625 1.046875 -0.957031 0.796875 -1.375 C 0.546875 -1.800781 0.421875 -2.265625 0.421875 -2.765625 C 0.421875 -3.285156 0.550781 -3.757812 0.8125 -4.1875 C 1.070312 -4.625 1.441406 -4.96875 1.921875 -5.21875 C 2.398438 -5.46875 2.957031 -5.59375 3.59375 -5.59375 Z M 2.28125 -2.765625 C 2.28125 -2.398438 2.378906 -2.117188 2.578125 -1.921875 C 2.773438 -1.734375 3.054688 -1.640625 3.421875 -1.640625 L 4.453125 -1.640625 L 4.453125 -3.859375 C 4.140625 -3.921875 3.851562 -3.953125 3.59375 -3.953125 C 3.164062 -3.953125 2.835938 -3.847656 2.609375 -3.640625 C 2.390625 -3.441406 2.28125 -3.148438 2.28125 -2.765625 Z M 2.28125 -2.765625 "/></g></g></g><g fill="#d71920" fill-opacity="1"><g transform="translate(131.482402, 216.261137)"><g/></g></g><g fill="#d71920" fill-opacity="1"><g transform="translate(134.789887, 216.261137)"><g><path d="M 7.53125 -1.640625 C 7.601562 -1.640625 7.65625 -1.566406 7.6875 -1.421875 C 7.71875 -1.273438 7.734375 -1.078125 7.734375 -0.828125 C 7.734375 -0.566406 7.71875 -0.363281 7.6875 -0.21875 C 7.65625 -0.0703125 7.601562 0 7.53125 0 L 6.96875 0 C 6.144531 0 5.53125 -0.242188 5.125 -0.734375 C 4.445312 -0.441406 3.828125 -0.296875 3.265625 -0.296875 C 2.722656 -0.296875 2.222656 -0.421875 1.765625 -0.671875 C 1.304688 -0.921875 0.941406 -1.265625 0.671875 -1.703125 C 0.410156 -2.140625 0.28125 -2.613281 0.28125 -3.125 C 0.28125 -3.644531 0.410156 -4.117188 0.671875 -4.546875 C 0.941406 -4.984375 1.304688 -5.320312 1.765625 -5.5625 C 2.222656 -5.8125 2.726562 -5.9375 3.28125 -5.9375 L 4.59375 -5.9375 L 4.59375 -6.21875 L 6.453125 -6.21875 L 6.453125 -2.515625 C 6.453125 -2.203125 6.507812 -1.976562 6.625 -1.84375 C 6.75 -1.707031 6.953125 -1.640625 7.234375 -1.640625 Z M 3.421875 -1.9375 C 3.773438 -1.9375 4.164062 -2.066406 4.59375 -2.328125 L 4.59375 -4.296875 L 3.40625 -4.296875 C 3.050781 -4.296875 2.753906 -4.179688 2.515625 -3.953125 C 2.273438 -3.722656 2.15625 -3.445312 2.15625 -3.125 C 2.15625 -2.789062 2.273438 -2.507812 2.515625 -2.28125 C 2.753906 -2.050781 3.054688 -1.9375 3.421875 -1.9375 Z M 2.40625 -6.734375 C 2.175781 -6.734375 1.988281 -6.800781 1.84375 -6.9375 C 1.707031 -7.082031 1.640625 -7.269531 1.640625 -7.5 C 1.640625 -7.726562 1.707031 -7.914062 1.84375 -8.0625 C 1.988281 -8.207031 2.175781 -8.28125 2.40625 -8.28125 C 2.625 -8.28125 2.804688 -8.207031 2.953125 -8.0625 C 3.097656 -7.914062 3.171875 -7.726562 3.171875 -7.5 C 3.171875 -7.269531 3.097656 -7.082031 2.953125 -6.9375 C 2.804688 -6.800781 2.625 -6.734375 2.40625 -6.734375 Z M 4.1875 -6.734375 C 3.96875 -6.734375 3.785156 -6.800781 3.640625 -6.9375 C 3.492188 -7.082031 3.421875 -7.269531 3.421875 -7.5 C 3.421875 -7.726562 3.492188 -7.914062 3.640625 -8.0625 C 3.785156 -8.207031 3.96875 -8.28125 4.1875 -8.28125 C 4.414062 -8.28125 4.601562 -8.207031 4.75 -8.0625 C 4.894531 -7.914062 4.96875 -7.726562 4.96875 -7.5 C 4.96875 -7.269531 4.894531 -7.082031 4.75 -6.9375 C 4.601562 -6.800781 4.414062 -6.734375 4.1875 -6.734375 Z M 4.1875 -6.734375 "/></g></g></g><g fill="#d71920" fill-opacity="1"><g transform="translate(142.790858, 216.261137)"><g><path d="M 4.578125 -1.640625 C 4.648438 -1.640625 4.703125 -1.566406 4.734375 -1.421875 C 4.765625 -1.273438 4.78125 -1.078125 4.78125 -0.828125 C 4.78125 -0.566406 4.765625 -0.363281 4.734375 -0.21875 C 4.703125 -0.0703125 4.648438 0 4.578125 0 L 4.03125 0 C 3.382812 0 2.863281 -0.175781 2.46875 -0.53125 C 2.070312 -0.175781 1.519531 0 0.8125 0 L 0 0 C -0.0703125 0 -0.125 -0.0703125 -0.15625 -0.21875 C -0.1875 -0.363281 -0.203125 -0.566406 -0.203125 -0.828125 C -0.203125 -1.078125 -0.1875 -1.273438 -0.15625 -1.421875 C -0.125 -1.566406 -0.0703125 -1.640625 0 -1.640625 L 0.546875 -1.640625 C 0.828125 -1.640625 1.023438 -1.707031 1.140625 -1.84375 C 1.265625 -1.976562 1.328125 -2.203125 1.328125 -2.515625 L 1.328125 -5.40625 L 3.1875 -5.40625 L 3.1875 -2.5 C 3.1875 -2.289062 3.171875 -2.070312 3.140625 -1.84375 C 3.273438 -1.707031 3.472656 -1.640625 3.734375 -1.640625 Z M 1.375 2.375 C 1.144531 2.375 0.957031 2.300781 0.8125 2.15625 C 0.675781 2.019531 0.609375 1.835938 0.609375 1.609375 C 0.609375 1.378906 0.675781 1.191406 0.8125 1.046875 C 0.957031 0.898438 1.144531 0.828125 1.375 0.828125 C 1.59375 0.828125 1.773438 0.898438 1.921875 1.046875 C 2.066406 1.191406 2.140625 1.378906 2.140625 1.609375 C 2.140625 1.835938 2.066406 2.019531 1.921875 2.15625 C 1.773438 2.300781 1.59375 2.375 1.375 2.375 Z M 3.15625 2.375 C 2.9375 2.375 2.753906 2.300781 2.609375 2.15625 C 2.460938 2.019531 2.390625 1.835938 2.390625 1.609375 C 2.390625 1.378906 2.460938 1.191406 2.609375 1.046875 C 2.753906 0.898438 2.9375 0.828125 3.15625 0.828125 C 3.382812 0.828125 3.570312 0.898438 3.71875 1.046875 C 3.863281 1.191406 3.9375 1.378906 3.9375 1.609375 C 3.9375 1.835938 3.863281 2.019531 3.71875 2.15625 C 3.570312 2.300781 3.382812 2.375 3.15625 2.375 Z M 3.15625 2.375 "/></g></g></g><g fill="#d71920" fill-opacity="1"><g transform="translate(147.841335, 216.261137)"><g><path d="M 1.125 -5.40625 L 2.984375 -5.40625 L 2.984375 0 L 0 0 C -0.0703125 0 -0.125 -0.0703125 -0.15625 -0.21875 C -0.1875 -0.363281 -0.203125 -0.566406 -0.203125 -0.828125 C -0.203125 -1.078125 -0.1875 -1.273438 -0.15625 -1.421875 C -0.125 -1.566406 -0.0703125 -1.640625 0 -1.640625 L 1.125 -1.640625 Z M 3.40625 -7.09375 L 3.40625 -6.15625 L 0.703125 -6.15625 L 0.703125 -7.09375 L 0.90625 -7.09375 C 0.863281 -7.226562 0.84375 -7.363281 0.84375 -7.5 C 0.84375 -7.894531 0.984375 -8.21875 1.265625 -8.46875 C 1.546875 -8.71875 1.90625 -8.84375 2.34375 -8.84375 C 2.6875 -8.84375 3.007812 -8.769531 3.3125 -8.625 L 2.890625 -7.71875 C 2.828125 -7.75 2.742188 -7.773438 2.640625 -7.796875 C 2.546875 -7.828125 2.453125 -7.84375 2.359375 -7.84375 C 2.179688 -7.84375 2.039062 -7.804688 1.9375 -7.734375 C 1.832031 -7.660156 1.78125 -7.566406 1.78125 -7.453125 C 1.78125 -7.367188 1.804688 -7.296875 1.859375 -7.234375 C 1.910156 -7.171875 1.976562 -7.125 2.0625 -7.09375 Z M 3.40625 -7.09375 "/></g></g></g><g fill="#d71920" fill-opacity="1"><g transform="translate(151.978323, 216.261137)"><g><path d="M 3.796875 -1.640625 C 3.859375 -1.640625 3.90625 -1.566406 3.9375 -1.421875 C 3.976562 -1.273438 4 -1.078125 4 -0.828125 C 4 -0.578125 3.976562 -0.375 3.9375 -0.21875 C 3.90625 -0.0703125 3.859375 0 3.796875 0 L 0.765625 0 L 0.765625 -7.90625 L 2.640625 -7.90625 L 2.640625 -1.640625 Z M 3.796875 -1.640625 "/></g></g></g><g fill="#d71920" fill-opacity="1"><g transform="translate(156.24131, 216.261137)"><g><path d="M 1.125 -5.40625 L 2.984375 -5.40625 L 2.984375 0 L 0 0 C -0.0703125 0 -0.125 -0.0703125 -0.15625 -0.21875 C -0.1875 -0.363281 -0.203125 -0.566406 -0.203125 -0.828125 C -0.203125 -1.078125 -0.1875 -1.273438 -0.15625 -1.421875 C -0.125 -1.566406 -0.0703125 -1.640625 0 -1.640625 L 1.125 -1.640625 Z M 2.015625 2.71875 C 1.742188 2.71875 1.519531 2.628906 1.34375 2.453125 C 1.175781 2.273438 1.09375 2.050781 1.09375 1.78125 C 1.09375 1.507812 1.175781 1.285156 1.34375 1.109375 C 1.519531 0.929688 1.742188 0.84375 2.015625 0.84375 C 2.285156 0.84375 2.503906 0.929688 2.671875 1.109375 C 2.847656 1.285156 2.9375 1.507812 2.9375 1.78125 C 2.9375 2.050781 2.847656 2.273438 2.671875 2.453125 C 2.503906 2.628906 2.285156 2.71875 2.015625 2.71875 Z M 2.015625 2.71875 "/></g></g></g><g fill="#d71920" fill-opacity="1"><g transform="translate(160.378297, 216.261137)"><g><path d="M 3.796875 -1.640625 C 3.867188 -1.640625 3.921875 -1.566406 3.953125 -1.421875 C 3.992188 -1.273438 4.015625 -1.078125 4.015625 -0.828125 C 4.015625 -0.566406 3.992188 -0.363281 3.953125 -0.21875 C 3.921875 -0.0703125 3.867188 0 3.796875 0 L 2.71875 0 C 2.644531 0.726562 2.375 1.304688 1.90625 1.734375 C 1.4375 2.171875 0.816406 2.40625 0.046875 2.4375 L -0.203125 0.796875 C 0.179688 0.804688 0.453125 0.722656 0.609375 0.546875 C 0.773438 0.378906 0.859375 0.0820312 0.859375 -0.34375 L 0.859375 -5.40625 L 2.734375 -5.40625 L 2.734375 -1.640625 Z M 3.796875 -1.640625 "/></g></g></g><g fill="#d71920" fill-opacity="1"><g transform="translate(164.651784, 216.261137)"><g><path d="M 7.8125 -1.640625 C 7.875 -1.640625 7.921875 -1.566406 7.953125 -1.421875 C 7.992188 -1.273438 8.015625 -1.078125 8.015625 -0.828125 C 8.015625 -0.578125 7.992188 -0.375 7.953125 -0.21875 C 7.921875 -0.0703125 7.875 0 7.8125 0 L 7.640625 0 C 7.328125 0 7.097656 0.09375 6.953125 0.28125 C 6.804688 0.46875 6.710938 0.71875 6.671875 1.03125 C 6.628906 1.34375 6.609375 1.789062 6.609375 2.375 L 4.046875 3.78125 C 3.109375 3.53125 2.382812 3.085938 1.875 2.453125 C 1.375 1.828125 1.0625 1.007812 0.9375 0 L 0 0 C -0.0703125 0 -0.125 -0.0703125 -0.15625 -0.21875 C -0.1875 -0.363281 -0.203125 -0.566406 -0.203125 -0.828125 C -0.203125 -1.078125 -0.1875 -1.273438 -0.15625 -1.421875 C -0.125 -1.566406 -0.0703125 -1.640625 0 -1.640625 L 0.890625 -1.640625 C 0.941406 -2.472656 1.082031 -3.21875 1.3125 -3.875 C 1.550781 -4.539062 1.867188 -5.0625 2.265625 -5.4375 C 2.671875 -5.8125 3.140625 -6 3.671875 -6 C 4.171875 -6 4.628906 -5.828125 5.046875 -5.484375 C 5.472656 -5.140625 5.804688 -4.65625 6.046875 -4.03125 C 6.296875 -3.40625 6.421875 -2.6875 6.421875 -1.875 C 6.421875 -1.675781 6.414062 -1.53125 6.40625 -1.4375 C 6.738281 -1.570312 7.148438 -1.640625 7.640625 -1.640625 Z M 3.671875 -4.359375 C 3.554688 -4.359375 3.4375 -4.234375 3.3125 -3.984375 C 3.1875 -3.734375 3.070312 -3.398438 2.96875 -2.984375 C 2.875 -2.566406 2.804688 -2.117188 2.765625 -1.640625 L 4.546875 -1.640625 L 4.546875 -1.859375 C 4.546875 -2.296875 4.5 -2.707031 4.40625 -3.09375 C 4.3125 -3.476562 4.195312 -3.785156 4.0625 -4.015625 C 3.925781 -4.242188 3.796875 -4.359375 3.671875 -4.359375 Z M 4.78125 1.453125 C 4.820312 0.867188 4.921875 0.382812 5.078125 0 L 2.8125 0 C 2.882812 0.476562 3.003906 0.875 3.171875 1.1875 C 3.347656 1.5 3.585938 1.75 3.890625 1.9375 Z M 4.78125 1.453125 "/></g></g></g><g fill="#d71920" fill-opacity="1"><g transform="translate(172.936253, 216.261137)"><g><path d="M 6.671875 -1.640625 C 6.734375 -1.640625 6.78125 -1.566406 6.8125 -1.421875 C 6.851562 -1.273438 6.875 -1.078125 6.875 -0.828125 C 6.875 -0.578125 6.851562 -0.375 6.8125 -0.21875 C 6.78125 -0.0703125 6.734375 0 6.671875 0 L 0 0 C -0.0703125 0 -0.125 -0.0703125 -0.15625 -0.21875 C -0.1875 -0.363281 -0.203125 -0.566406 -0.203125 -0.828125 C -0.203125 -1.078125 -0.1875 -1.273438 -0.15625 -1.421875 C -0.125 -1.566406 -0.0703125 -1.640625 0 -1.640625 L 3.328125 -1.640625 L 3.328125 -1.734375 C 3.328125 -2.316406 3.191406 -2.757812 2.921875 -3.0625 C 2.648438 -3.363281 2.25 -3.515625 1.71875 -3.515625 L 0.578125 -4.6875 L 3.46875 -7.578125 L 4.609375 -6.421875 L 3.15625 -4.953125 C 3.800781 -4.734375 4.300781 -4.335938 4.65625 -3.765625 C 5.019531 -3.203125 5.203125 -2.492188 5.203125 -1.640625 Z M 6.671875 -1.640625 "/></g></g></g><g fill="#d71920" fill-opacity="1"><g transform="translate(180.076233, 216.261137)"><g><path d="M 0.84375 -7.90625 L 2.703125 -7.90625 L 2.703125 0 L 0 0 C -0.0703125 0 -0.125 -0.0703125 -0.15625 -0.21875 C -0.1875 -0.363281 -0.203125 -0.566406 -0.203125 -0.828125 C -0.203125 -1.078125 -0.1875 -1.273438 -0.15625 -1.421875 C -0.125 -1.566406 -0.0703125 -1.640625 0 -1.640625 L 0.84375 -1.640625 Z M 0.84375 -7.90625 "/></g></g></g><g fill="#d71920" fill-opacity="1"><g transform="translate(184.045227, 216.261137)"><g><path d="M 2.640625 0 L 0.765625 0 L 0.765625 -7.90625 L 2.640625 -7.90625 Z M 2.640625 0 "/></g></g></g><g fill="#d71920" fill-opacity="1"><g transform="translate(187.919715, 216.261137)"><g/></g></g><g fill="#d71920" fill-opacity="1"><g transform="translate(191.227206, 216.261137)"><g><path d="M 7.640625 -5.40625 L 9.515625 -5.40625 L 9.515625 0 L 3 0 C 2.21875 0 1.609375 -0.222656 1.171875 -0.671875 C 0.742188 -1.128906 0.53125 -1.765625 0.53125 -2.578125 C 0.53125 -3.578125 0.90625 -4.421875 1.65625 -5.109375 L 2.953125 -3.984375 C 2.578125 -3.546875 2.390625 -3.078125 2.390625 -2.578125 C 2.390625 -2.273438 2.460938 -2.039062 2.609375 -1.875 C 2.753906 -1.71875 2.96875 -1.640625 3.25 -1.640625 L 7.640625 -1.65625 Z M 4.3125 -6.140625 C 4.082031 -6.140625 3.894531 -6.207031 3.75 -6.34375 C 3.613281 -6.488281 3.546875 -6.675781 3.546875 -6.90625 C 3.546875 -7.132812 3.613281 -7.320312 3.75 -7.46875 C 3.894531 -7.613281 4.082031 -7.6875 4.3125 -7.6875 C 4.53125 -7.6875 4.710938 -7.613281 4.859375 -7.46875 C 5.003906 -7.320312 5.078125 -7.132812 5.078125 -6.90625 C 5.078125 -6.675781 5.003906 -6.488281 4.859375 -6.34375 C 4.710938 -6.207031 4.53125 -6.140625 4.3125 -6.140625 Z M 6.09375 -6.140625 C 5.875 -6.140625 5.691406 -6.207031 5.546875 -6.34375 C 5.398438 -6.488281 5.328125 -6.675781 5.328125 -6.90625 C 5.328125 -7.132812 5.398438 -7.320312 5.546875 -7.46875 C 5.691406 -7.613281 5.875 -7.6875 6.09375 -7.6875 C 6.320312 -7.6875 6.507812 -7.613281 6.65625 -7.46875 C 6.800781 -7.320312 6.875 -7.132812 6.875 -6.90625 C 6.875 -6.675781 6.800781 -6.488281 6.65625 -6.34375 C 6.507812 -6.207031 6.320312 -6.140625 6.09375 -6.140625 Z M 6.09375 -6.140625 "/></g></g></g><g fill="#d71920" fill-opacity="1"><g transform="translate(201.89517, 216.261137)"><g><path d="M 5.359375 -1.640625 L 5.359375 -7.90625 L 7.21875 -7.90625 L 7.21875 0 L 0.421875 0 L 0.421875 -1.640625 L 1.71875 -1.640625 L 1.71875 -6.421875 L 3.578125 -6.421875 L 3.578125 -1.640625 Z M 5.359375 -1.640625 "/></g></g></g><g fill="#d71920" fill-opacity="1"><g transform="translate(210.274145, 216.261137)"><g><path d="M 3.59375 -5.59375 C 4.039062 -5.59375 4.507812 -5.53125 5 -5.40625 C 5.5 -5.289062 5.941406 -5.140625 6.328125 -4.953125 L 6.328125 -0.34375 C 6.328125 0.238281 6.207031 0.738281 5.96875 1.15625 C 5.726562 1.570312 5.390625 1.890625 4.953125 2.109375 C 4.523438 2.335938 4.015625 2.453125 3.421875 2.453125 L 1.484375 2.453125 L 1.484375 0.796875 L 3.421875 0.796875 C 3.742188 0.796875 3.984375 0.734375 4.140625 0.609375 C 4.296875 0.492188 4.394531 0.289062 4.4375 0 L 3.421875 0 C 2.835938 0 2.316406 -0.125 1.859375 -0.375 C 1.398438 -0.625 1.046875 -0.957031 0.796875 -1.375 C 0.546875 -1.800781 0.421875 -2.265625 0.421875 -2.765625 C 0.421875 -3.285156 0.550781 -3.757812 0.8125 -4.1875 C 1.070312 -4.625 1.441406 -4.96875 1.921875 -5.21875 C 2.398438 -5.46875 2.957031 -5.59375 3.59375 -5.59375 Z M 2.28125 -2.765625 C 2.28125 -2.398438 2.378906 -2.117188 2.578125 -1.921875 C 2.773438 -1.734375 3.054688 -1.640625 3.421875 -1.640625 L 4.453125 -1.640625 L 4.453125 -3.859375 C 4.140625 -3.921875 3.851562 -3.953125 3.59375 -3.953125 C 3.164062 -3.953125 2.835938 -3.847656 2.609375 -3.640625 C 2.390625 -3.441406 2.28125 -3.148438 2.28125 -2.765625 Z M 2.28125 -2.765625 "/></g></g></g><g fill="#d71920" fill-opacity="1"><g transform="translate(217.634618, 216.261137)"><g><path d="M 3.796875 -1.640625 C 3.859375 -1.640625 3.90625 -1.566406 3.9375 -1.421875 C 3.976562 -1.273438 4 -1.078125 4 -0.828125 C 4 -0.578125 3.976562 -0.375 3.9375 -0.21875 C 3.90625 -0.0703125 3.859375 0 3.796875 0 L 0.765625 0 L 0.765625 -7.90625 L 2.640625 -7.90625 L 2.640625 -1.640625 Z M 3.796875 -1.640625 "/></g></g></g><g fill="#d71920" fill-opacity="1"><g transform="translate(221.897611, 216.261137)"><g><path d="M 7.640625 -1.640625 C 7.703125 -1.640625 7.753906 -1.566406 7.796875 -1.421875 C 7.835938 -1.273438 7.859375 -1.078125 7.859375 -0.828125 C 7.859375 -0.578125 7.835938 -0.375 7.796875 -0.21875 C 7.753906 -0.0703125 7.703125 0 7.640625 0 L 0 0 C -0.0703125 0 -0.125 -0.0703125 -0.15625 -0.21875 C -0.1875 -0.363281 -0.203125 -0.566406 -0.203125 -0.828125 C -0.203125 -1.078125 -0.1875 -1.273438 -0.15625 -1.421875 C -0.125 -1.566406 -0.0703125 -1.640625 0 -1.640625 L 1.078125 -1.640625 C 0.921875 -1.984375 0.84375 -2.347656 0.84375 -2.734375 C 0.84375 -3.273438 0.976562 -3.757812 1.25 -4.1875 C 1.53125 -4.625 1.90625 -4.96875 2.375 -5.21875 C 2.84375 -5.476562 3.359375 -5.609375 3.921875 -5.609375 C 4.679688 -5.609375 5.523438 -5.363281 6.453125 -4.875 L 6.453125 -1.640625 Z M 2.71875 -2.75 C 2.71875 -2.46875 2.796875 -2.226562 2.953125 -2.03125 C 3.109375 -1.832031 3.3125 -1.707031 3.5625 -1.65625 L 4.59375 -1.65625 L 4.59375 -3.875 C 4.40625 -3.9375 4.191406 -3.96875 3.953125 -3.96875 C 3.585938 -3.96875 3.289062 -3.851562 3.0625 -3.625 C 2.832031 -3.394531 2.71875 -3.101562 2.71875 -2.75 Z M 3.046875 -6.421875 C 2.816406 -6.421875 2.628906 -6.488281 2.484375 -6.625 C 2.347656 -6.769531 2.28125 -6.957031 2.28125 -7.1875 C 2.28125 -7.414062 2.347656 -7.601562 2.484375 -7.75 C 2.628906 -7.894531 2.816406 -7.96875 3.046875 -7.96875 C 3.265625 -7.96875 3.445312 -7.894531 3.59375 -7.75 C 3.738281 -7.601562 3.8125 -7.414062 3.8125 -7.1875 C 3.8125 -6.957031 3.738281 -6.769531 3.59375 -6.625 C 3.445312 -6.488281 3.265625 -6.421875 3.046875 -6.421875 Z M 4.828125 -6.421875 C 4.609375 -6.421875 4.425781 -6.488281 4.28125 -6.625 C 4.132812 -6.769531 4.0625 -6.957031 4.0625 -7.1875 C 4.0625 -7.414062 4.132812 -7.601562 4.28125 -7.75 C 4.425781 -7.894531 4.609375 -7.96875 4.828125 -7.96875 C 5.054688 -7.96875 5.242188 -7.894531 5.390625 -7.75 C 5.535156 -7.601562 5.609375 -7.414062 5.609375 -7.1875 C 5.609375 -6.957031 5.535156 -6.769531 5.390625 -6.625 C 5.242188 -6.488281 5.054688 -6.421875 4.828125 -6.421875 Z M 4.828125 -6.421875 "/></g></g></g><g fill="#d71920" fill-opacity="1"><g transform="translate(230.01408, 216.261137)"><g><path d="M 8.5 -1.640625 C 8.5625 -1.640625 8.609375 -1.566406 8.640625 -1.421875 C 8.679688 -1.273438 8.703125 -1.078125 8.703125 -0.828125 C 8.703125 -0.566406 8.679688 -0.363281 8.640625 -0.21875 C 8.609375 -0.0703125 8.5625 0 8.5 0 L 8.375 0 C 7.6875 0 7.09375 -0.144531 6.59375 -0.4375 C 6.15625 -0.289062 5.703125 -0.179688 5.234375 -0.109375 C 4.773438 -0.0351562 4.367188 0 4.015625 0 C 3.273438 0 2.546875 -0.15625 1.828125 -0.46875 C 1.597656 -0.3125 1.34375 -0.191406 1.0625 -0.109375 C 0.789062 -0.0351562 0.503906 0 0.203125 0 L 0 0 C -0.0703125 0 -0.125 -0.0703125 -0.15625 -0.21875 C -0.1875 -0.363281 -0.203125 -0.566406 -0.203125 -0.828125 C -0.203125 -1.078125 -0.1875 -1.273438 -0.15625 -1.421875 C -0.125 -1.566406 -0.0703125 -1.640625 0 -1.640625 L 0.203125 -1.640625 C 0.359375 -1.640625 0.492188 -1.664062 0.609375 -1.71875 C 0.734375 -1.78125 0.816406 -1.914062 0.859375 -2.125 C 0.867188 -2.1875 0.925781 -2.5 1.03125 -3.0625 C 1.132812 -3.632812 1.410156 -4.164062 1.859375 -4.65625 C 2.316406 -5.15625 2.910156 -5.40625 3.640625 -5.40625 C 4.191406 -5.40625 4.707031 -5.269531 5.1875 -5 C 5.664062 -4.726562 6.078125 -4.347656 6.421875 -3.859375 C 6.765625 -3.367188 7.007812 -2.8125 7.15625 -2.1875 C 7.25 -1.988281 7.375 -1.847656 7.53125 -1.765625 C 7.6875 -1.679688 7.921875 -1.640625 8.234375 -1.640625 Z M 2.71875 -1.90625 C 3.164062 -1.726562 3.597656 -1.640625 4.015625 -1.640625 C 4.398438 -1.640625 4.835938 -1.695312 5.328125 -1.8125 C 5.242188 -2.175781 5.113281 -2.503906 4.9375 -2.796875 C 4.769531 -3.097656 4.570312 -3.332031 4.34375 -3.5 C 4.125 -3.675781 3.90625 -3.765625 3.6875 -3.765625 C 3.507812 -3.765625 3.363281 -3.703125 3.25 -3.578125 C 3.144531 -3.460938 3.0625 -3.304688 3 -3.109375 C 2.945312 -2.921875 2.882812 -2.660156 2.8125 -2.328125 Z M 2.71875 -1.90625 "/></g></g></g><g fill="#d71920" fill-opacity="1"><g transform="translate(238.981052, 216.261137)"><g><path d="M 3.8125 -1.640625 C 3.882812 -1.640625 3.9375 -1.566406 3.96875 -1.421875 C 4 -1.273438 4.015625 -1.078125 4.015625 -0.828125 C 4.015625 -0.566406 4 -0.363281 3.96875 -0.21875 C 3.9375 -0.0703125 3.882812 0 3.8125 0 L 0 0 C -0.0703125 0 -0.125 -0.0703125 -0.15625 -0.21875 C -0.1875 -0.363281 -0.203125 -0.566406 -0.203125 -0.828125 C -0.203125 -1.078125 -0.1875 -1.273438 -0.15625 -1.421875 C -0.125 -1.566406 -0.0703125 -1.640625 0 -1.640625 L 0.84375 -1.640625 L 0.84375 -7.90625 L 2.703125 -7.90625 L 2.703125 -1.640625 Z M 3.8125 -1.640625 "/></g></g></g><g fill="#d71920" fill-opacity="1"><g transform="translate(243.265045, 216.261137)"><g><path d="M 0.84375 -7.90625 L 2.703125 -7.90625 L 2.703125 0 L 0 0 C -0.0703125 0 -0.125 -0.0703125 -0.15625 -0.21875 C -0.1875 -0.363281 -0.203125 -0.566406 -0.203125 -0.828125 C -0.203125 -1.078125 -0.1875 -1.273438 -0.15625 -1.421875 C -0.125 -1.566406 -0.0703125 -1.640625 0 -1.640625 L 0.84375 -1.640625 Z M 0.84375 -7.90625 "/></g></g></g></svg>